<?xml version="1.0" encoding="utf-8"?>
<!-- Generator: Adobe Illustrator 24.2.3, SVG Export Plug-In . SVG Version: 6.00 Build 0)  -->
<svg version="1.1" id="Шар_1" xmlns:v="https://vecta.io/nano"
	 xmlns="http://www.w3.org/2000/svg" xmlns:xlink="http://www.w3.org/1999/xlink" x="0px" y="0px" viewBox="0 0 186 171"
	 style="enable-background:new 0 0 186 171;" xml:space="preserve">
<style type="text/css">
	.st0{fill:#F0B90B;}
	.st1{fill:#FFFDFA;}
	.st2{clip-path:url(#SVGID_2_);}
	.st3{fill-rule:evenodd;clip-rule:evenodd;fill:#FFFDFA;}
</style>
<circle class="st0" cx="129" cy="107.7" r="56.5"/>
<path class="st1" d="M108,107.7l-8.6,8.7l-8.7-8.7l8.7-8.7L108,107.7z M129,86.6l14.9,14.9l8.7-8.7L137.7,78l-8.7-8.7l-23.5,23.5
	l8.7,8.7L129,86.6z M158.7,99l-8.6,8.7l8.7,8.7l8.6-8.7L158.7,99z M129,128.8l-14.9-14.9l-8.6,8.7l23.5,23.5l23.6-23.6l-8.7-8.6
	L129,128.8z M129,116.4l8.7-8.7L129,99l-8.7,8.7L129,116.4z"/>
<g>
	<defs>
		<rect id="SVGID_1_" x="-26.7" y="7.3" width="241" height="241"/>
	</defs>
	<clipPath id="SVGID_2_">
		<use xlink:href="#SVGID_1_"  style="overflow:visible;"/>
	</clipPath>
	<g class="st2">
		<circle class="st0" cx="59.2" cy="51" r="43.7"/>
		<path class="st3" d="M40.6,39.9l18.6-18.6l7.4,7.4L48,47.3L40.6,39.9z M40.6,62.2l29.7-29.7l7.4,7.4L48,69.6L40.6,62.2z
			 M81.4,43.6L51.7,73.3l7.4,7.4L88.9,51L81.4,43.6z M29.4,51l7.4-7.4l7.4,7.4l-7.4,7.4L29.4,51z"/>
	</g>
</g>
</svg>
