<?xml version="1.0" encoding="utf-8"?>
<!-- Generator: Adobe Illustrator 24.2.3, SVG Export Plug-In . SVG Version: 6.00 Build 0)  -->
<svg version="1.1" id="Шар_1" xmlns:v="https://vecta.io/nano"
	 xmlns="http://www.w3.org/2000/svg" xmlns:xlink="http://www.w3.org/1999/xlink" x="0px" y="0px" viewBox="0 0 186 171"
	 style="enable-background:new 0 0 186 171;" xml:space="preserve">
<style type="text/css">
	.st0{fill:#F0B90B;}
	.st1{fill:#FFFDFA;}
	.st2{opacity:0.1;fill:none;stroke:#191326;stroke-width:3;enable-background:new    ;}
	.st3{fill:#F7941D;}
	.st4{opacity:0.2;fill:none;stroke:#191326;stroke-width:2.837;enable-background:new    ;}
</style>
<circle class="st0" cx="52.4" cy="45.5" r="39.5"/>
<path class="st1" d="M37.7,45.5l-6,6.1l-6.1-6.1l6.1-6.1L37.7,45.5z M52.4,30.8l10.4,10.4l6.1-6.1L58.5,24.7l-6.1-6.1L36,35.1
	l6.1,6.1L52.4,30.8z M73.2,39.4l-6,6.1l6.1,6.1l6-6.1L73.2,39.4z M52.4,60.2L42,49.8l-6,6.1l16.5,16.5l16.5-16.5l-6.1-6L52.4,60.2z
	 M52.4,51.6l6.1-6.1l-6.1-6.1l-6.1,6.1L52.4,51.6z"/>
<circle class="st2" cx="52.4" cy="45.5" r="37.5"/>
<path class="st3" d="M177.3,119.1c-7.9,31.8-40.1,51.1-71.8,43.2c-31.7-7.9-51.1-40.1-43.2-71.8c7.9-31.8,40-51.1,71.8-43.2
	C165.9,55.2,185.2,87.4,177.3,119.1L177.3,119.1z"/>
<path class="st1" d="M145.5,95.9c1.1-7.9-4.8-12.1-13-15l2.6-10.7l-6.5-1.7L126,79l-5.2-1.2l2.6-10.5l-6.5-1.7l-2.6,10.7
	c-1.4-0.4-2.8-0.6-4.1-1l-8.9-2.3L99.5,80l4.7,1.1c2.6,0.7,3.2,2.4,3.1,3.8l-3.1,12.2c0.2,0.1,0.4,0.1,0.7,0.2
	c-0.2-0.1-0.4-0.1-0.7-0.2l-4.3,17.1c-0.4,0.8-1.1,2-3,1.6c0.1,0.1-4.7-1.1-4.7-1.1L89,122l8.5,2.1l4.6,1.2l-2.7,10.8l6.5,1.7
	l2.6-10.7c1.8,0.5,3.5,1,5.2,1.3l-2.6,10.6l6.5,1.7l2.7-10.8c11.1,2.1,19.4,1.2,22.9-8.8c2.8-8.1-0.2-12.7-6-15.8
	C141.5,104.5,144.6,101.7,145.5,95.9L145.5,95.9z M130.6,116.8c-2,8.1-15.6,3.7-20.1,2.6l3.6-14.3
	C118.6,106.2,132.7,108.4,130.6,116.8z M132.6,95.9c-1.8,7.4-13.1,3.6-16.8,2.7l3.2-13C122.7,86.5,134.6,88.1,132.6,95.9z"/>
<circle class="st4" cx="119.8" cy="104.8" r="57.3"/>
</svg>
