<?xml version="1.0" encoding="utf-8"?>
<!-- Generator: Adobe Illustrator 24.2.3, SVG Export Plug-In . SVG Version: 6.00 Build 0)  -->
<svg version="1.1" id="Шар_1" xmlns:v="https://vecta.io/nano"
	 xmlns="http://www.w3.org/2000/svg" xmlns:xlink="http://www.w3.org/1999/xlink" x="0px" y="0px" viewBox="0 0 186 171"
	 style="enable-background:new 0 0 186 171;" xml:space="preserve">
<style type="text/css">
	.st0{fill:#F7941D;}
	.st1{fill:#FFFDFA;}
	.st2{opacity:0.2;fill:none;stroke:#191326;stroke-width:2.837;enable-background:new    ;}
</style>
<path class="st0" d="M176.7,104.9c-10.4,41.9-52.8,67.3-94.5,56.9c-41.7-10.4-67.3-52.8-56.9-94.5C35.7,25.3,78-0.1,119.9,10.3
	S187.1,63.1,176.7,104.9L176.7,104.9z"/>
<path class="st1" d="M134.9,74.3c1.4-10.4-6.3-15.9-17.1-19.7l3.4-14.1l-8.6-2.2l-3.4,13.8l-6.8-1.6l3.4-13.8l-8.6-2.2l-3.4,14.1
	c-1.8-0.5-3.7-0.8-5.4-1.3l-11.7-3l-2.4,9.2l6.2,1.4c3.4,0.9,4.2,3.2,4.1,5l-4.1,16.1c0.3,0.1,0.5,0.1,0.9,0.3
	c-0.3-0.1-0.5-0.1-0.9-0.3l-5.7,22.5c-0.5,1.1-1.4,2.6-3.9,2.1c0.1,0.1-6.2-1.4-6.2-1.4l-4.2,9.6l11.2,2.8l6.1,1.6l-3.6,14.2
	l8.6,2.2l3.4-14.1c2.4,0.7,4.6,1.3,6.8,1.7l-3.4,14l8.6,2.2l3.6-14.2c14.6,2.8,25.5,1.6,30.2-11.6c3.7-10.7-0.3-16.7-7.9-20.8
	C129.6,85.6,133.7,82,134.9,74.3L134.9,74.3z M115.3,101.8c-2.6,10.7-20.5,4.9-26.5,3.4l4.7-18.8C99.5,87.9,118,90.8,115.3,101.8z
	 M117.9,74.3c-2.4,9.7-17.2,4.7-22.1,3.6l4.2-17.1C104.9,61.9,120.5,64,117.9,74.3z"/>
<circle class="st2" cx="101" cy="86" r="75.4"/>
</svg>
