<?xml version="1.0" encoding="utf-8"?>
<!-- Generator: Adobe Illustrator 24.2.3, SVG Export Plug-In . SVG Version: 6.00 Build 0)  -->
<svg version="1.1" id="Шар_1" xmlns:v="https://vecta.io/nano"
	 xmlns="http://www.w3.org/2000/svg" xmlns:xlink="http://www.w3.org/1999/xlink" x="0px" y="0px" viewBox="0 0 186 171"
	 style="enable-background:new 0 0 186 171;" xml:space="preserve">
<style type="text/css">
	.st0{fill:url(#SVGID_1_);}
	.st1{fill-rule:evenodd;clip-rule:evenodd;fill:#606063;}
	.st2{fill:#BEBEBE;}
	.st3{fill:#F5F3F3;}
	.st4{fill-rule:evenodd;clip-rule:evenodd;fill:#612F01;}
	.st5{fill:#FEDC90;}
	.st6{fill:#D1884F;}
	.st7{fill-rule:evenodd;clip-rule:evenodd;fill:url(#SVGID_2_);}
	.st8{fill-rule:evenodd;clip-rule:evenodd;fill:#633001;}
	.st9{fill:#9E7200;}
	.st10{fill:#F0B90B;}
	.st11{opacity:0.1;fill:none;stroke:#191326;stroke-width:3;enable-background:new    ;}
</style>
<linearGradient id="SVGID_1_" gradientUnits="userSpaceOnUse" x1="101.7916" y1="165.3036" x2="101.7916" y2="7.3037" gradientTransform="matrix(1 0 0 -1 0 172)">
	<stop  offset="0" style="stop-color:#54DADE"/>
	<stop  offset="0.762" style="stop-color:#24C7D6"/>
</linearGradient>
<circle class="st0" cx="101.8" cy="85.7" r="79"/>
<path class="st1" d="M50.5,94.4l0,0.9c0,1.1,0.1,2.2,0.3,3.3h-0.3v1.7c0,0.8,0.1,1.7,0.2,2.5c2.1,16.1,24.2,28.7,51.2,28.7
	s49.1-12.6,51.2-28.7c0.1-0.8,0.2-1.7,0.2-2.5v-1.7h-0.3c0.2-1.1,0.3-2.2,0.3-3.3c0-0.3,0-0.6,0-0.9c-0.8-16.8-23.4-30.3-51.3-30.3
	S51.3,77.6,50.5,94.4L50.5,94.4z M46.3,94.4c0.4-10.3,7.3-18.9,17-24.8c10.1-6.1,23.7-9.7,38.5-9.7s28.4,3.6,38.5,9.7
	c9.7,5.9,16.7,14.5,17,24.8h0v5.9c0,10.6-7.1,19.6-17.1,25.6c-10.1,6.1-23.7,9.7-38.5,9.7s-28.4-3.6-38.5-9.7
	c-10-6.1-17.1-15-17.1-25.6L46.3,94.4L46.3,94.4L46.3,94.4z"/>
<path class="st2" d="M153.1,100.3c0,17.2-23,31.2-51.3,31.2s-51.3-14-51.3-31.2v-4.9h102.7L153.1,100.3L153.1,100.3z"/>
<path class="st3" d="M153.1,95.3c0,17.2-23,31.2-51.3,31.2s-51.3-14-51.3-31.2s23-31.2,51.3-31.2S153.1,78.1,153.1,95.3L153.1,95.3z
	"/>
<g>
	<path id="H" class="st4" d="M58.4,86.5L58.4,86.5c0,1.5,0.2,2.9,0.6,4.2h-0.6v1.8c0,0.8,0.1,1.6,0.2,2.4
		c2,11.9,18.3,21.1,38.2,21.1s36.3-9.3,38.2-21.1c0.1-0.8,0.2-1.6,0.2-2.4v-1.8h-0.6c0.4-1.3,0.6-2.7,0.6-4v-0.1v-0.1
		C135.2,73.5,118,63,96.8,63S58.4,73.5,58.4,86.5z M54.1,86.5L54.1,86.5v6c0,8.5,5.6,15.5,13.3,20.2c7.7,4.7,18.1,7.5,29.4,7.5
		s21.7-2.8,29.4-7.5c7.6-4.7,13.3-11.7,13.3-20.2v-6c0-8.5-5.6-15.5-13.3-20.2c-7.7-4.7-18.1-7.5-29.4-7.5s-21.7,2.8-29.4,7.5
		C59.8,71,54.2,78,54.1,86.5z"/>
</g>
<g>
	<path id="I" class="st5" d="M135.2,92.5c0,13-17.2,23.5-38.4,23.5s-38.4-10.5-38.4-23.5V87h76.9V92.5z"/>
</g>
<g>
	<path id="J" class="st6" d="M135.2,86.5c0,13-17.2,23.5-38.4,23.5S58.4,99.5,58.4,86.5S75.6,63,96.8,63S135.2,73.5,135.2,86.5z"/>
</g>
<path class="st4" d="M69.9,73.8L69.9,73.8c0,1.5,0.2,2.9,0.6,4.2h-0.6v1.8c0,0.8,0.1,1.6,0.2,2.4c2,11.8,18.3,21.1,38.2,21.1
	s36.3-9.3,38.2-21.1c0.1-0.8,0.2-1.6,0.2-2.4V78h-0.6c0.4-1.3,0.6-2.7,0.6-4v-0.1v-0.1c-0.1-12.9-17.2-23.4-38.4-23.4
	S70,60.9,69.9,73.8z M65.7,73.8L65.7,73.8v6c0,8.5,5.6,15.5,13.3,20.2c7.7,4.7,18.1,7.5,29.4,7.5s21.7-2.8,29.4-7.5
	c7.6-4.7,13.3-11.7,13.3-20.2v-6c0-8.5-5.6-15.5-13.3-20.2c-7.7-4.7-18.1-7.5-29.4-7.5S86.7,49,79,53.7
	C71.4,58.3,65.8,65.3,65.7,73.8z"/>
<g>
	<path id="I_1_" class="st5" d="M146.8,79.9c0,13-17.2,23.5-38.4,23.5S69.9,92.8,69.9,79.9v-5.5h76.9V79.9z"/>
</g>
<g>
	<path id="J_1_" class="st6" d="M146.8,73.9c0,13-17.2,23.5-38.4,23.5S69.9,86.9,69.9,73.9s17.2-23.5,38.4-23.5
		S146.8,60.9,146.8,73.9z"/>
</g>
<g>
	<path id="H_1_" class="st4" d="M58.4,61.2L58.4,61.2c0,1.5,0.2,2.9,0.6,4.2h-0.6v1.8c0,0.8,0.1,1.6,0.2,2.4
		c2,11.9,18.3,21.1,38.2,21.1s36.3-9.3,38.2-21.1c0.1-0.8,0.2-1.6,0.2-2.4v-1.8h-0.6c0.4-1.3,0.6-2.7,0.6-4v-0.1v-0.1
		c-0.1-12.9-17.2-23.4-38.4-23.4S58.4,48.2,58.4,61.2z M54.1,61.2L54.1,61.2v6c0,8.5,5.6,15.5,13.3,20.2c7.7,4.7,18.1,7.5,29.4,7.5
		s21.7-2.8,29.4-7.5c7.6-4.7,13.3-11.7,13.3-20.2v-6c0-8.5-5.6-15.5-13.3-20.2c-7.7-4.7-18.1-7.5-29.4-7.5S75.1,36.3,67.4,41
		C59.8,45.7,54.2,52.7,54.1,61.2z"/>
</g>
<g>
	<path id="I_2_" class="st5" d="M135.2,67.2c0,13-17.2,23.5-38.4,23.5S58.4,80.2,58.4,67.2v-5.5h76.9V67.2z"/>
</g>
<g>
	<path id="J_2_" class="st6" d="M135.2,61.2c0,13-17.2,23.5-38.4,23.5S58.4,74.2,58.4,61.2s17.2-23.5,38.4-23.5
		S135.2,48.3,135.2,61.2z"/>
</g>
<g>
	
		<linearGradient id="SVGID_2_" gradientUnits="userSpaceOnUse" x1="90.59" y1="123.0468" x2="90.59" y2="74.2003" gradientTransform="matrix(1 0 0 -1 0 172)">
		<stop  offset="0" style="stop-color:#9F4A08"/>
		<stop  offset="0.37" style="stop-color:#7D3900"/>
		<stop  offset="1" style="stop-color:#8D4104"/>
	</linearGradient>
	<path class="st7" d="M67.4,62.7c0,4.3,3.1,8.2,8.1,10.8l-3.4,6v15.1c0,2,1.6,3.6,3.6,3.6s3.6-1.6,3.6-3.6v-12l3.7-6.4
		c2.4,0.5,4.9,0.8,7.6,0.8c12.8,0,23.1-6.4,23.1-14.2s-10.4-14.2-23.1-14.2S67.4,54.8,67.4,62.7z"/>
	<path class="st8" d="M75.6,73.5L74,72.6c-4-2.6-6.5-6.1-6.5-9.9c0-7.9,10.4-14.2,23.1-14.2s23.1,6.4,23.1,14.2
		s-10.4,14.2-23.1,14.2c-2.6,0-5.2-0.3-7.6-0.8l-3.7,6.4v12c0,2-1.6,3.6-3.6,3.6c-2,0-3.6-1.6-3.6-3.6V79.5L75.6,73.5L75.6,73.5z
		 M68.4,79.6v15c0,4,3.3,7.3,7.3,7.3c4,0,7.3-3.3,7.3-7.3v-11l1.9-3.3c1.9,0.3,3.8,0.4,5.6,0.4c7,0,13.4-1.7,18.3-4.7
		c4.8-3,8.5-7.5,8.5-13.2s-3.7-10.3-8.5-13.2c-4.9-3-11.3-4.7-18.3-4.7c-7,0-13.4,1.7-18.3,4.7c-4.8,3-8.5,7.5-8.5,13.2
		c0,5,2.9,9.1,6.8,12L69,77.6c-0.2,0.3-0.3,0.5-0.4,0.8C68.5,78.8,68.4,79.2,68.4,79.6L68.4,79.6z"/>
</g>
<g>
	<g>
		<path id="K" class="st9" d="M74.7,56.7c0,4.1,5.2,7.4,11.6,7.4c6.4,0,11.6-3.3,11.6-7.4s-5.2-7.4-11.6-7.4
			C79.9,49.3,74.7,52.6,74.7,56.7z"/>
	</g>
	<path class="st9" d="M74.7,53.6h23.2v3.2H74.7V53.6z"/>
</g>
<g>
	<path id="K_1_" class="st10" d="M74.7,53.6c0,4.1,5.2,7.4,11.6,7.4c6.4,0,11.6-3.3,11.6-7.4s-5.2-7.4-11.6-7.4
		C79.9,46.2,74.7,49.5,74.7,53.6z"/>
</g>
<path class="st9" d="M81.9,52.7l3.3-2.1c0.7-0.4,1.6-0.4,2.3,0l3.3,2.1c0.7,0.4,0.7,1.4,0,1.8l-3.3,2.1c-0.7,0.4-1.6,0.4-2.3,0
	l-3.3-2.1C81.2,54,81.2,53.1,81.9,52.7z"/>
<path class="st8" d="M76.1,45.2c2.8-1.8,6.4-2.7,10.2-2.7c3.8,0,7.4,1,10.2,2.7c2.7,1.7,5.1,4.6,5.1,8.3v3.2c0,3.7-2.4,6.6-5.1,8.3
	c-2.8,1.8-6.4,2.7-10.2,2.7c-3.8,0-7.4-1-10.2-2.7c-2.7-1.7-5.1-4.6-5.1-8.3v-3.2C71,49.8,73.4,47,76.1,45.2z M86.3,46.2
	c-6.4,0-11.6,3.3-11.6,7.4v3.2c0,4.1,5.2,7.4,11.6,7.4c6.4,0,11.6-3.3,11.6-7.4v-3.2C97.8,49.5,92.7,46.2,86.3,46.2z"/>
<circle class="st11" cx="101.8" cy="85.7" r="74.9"/>
</svg>
