<?xml version="1.0" encoding="utf-8"?>
<!-- Generator: Adobe Illustrator 24.2.3, SVG Export Plug-In . SVG Version: 6.00 Build 0)  -->
<svg version="1.1" id="Шар_1" xmlns:v="https://vecta.io/nano"
	 xmlns="http://www.w3.org/2000/svg" xmlns:xlink="http://www.w3.org/1999/xlink" x="0px" y="0px" viewBox="0 0 186 171"
	 style="enable-background:new 0 0 186 171;" xml:space="preserve">
<style type="text/css">
	.st0{fill:#F0B90B;}
	.st1{fill:#FFFDFA;}
	.st2{opacity:0.1;fill:none;stroke:#191326;stroke-width:3;enable-background:new    ;}
	.st3{fill:url(#SVGID_1_);}
	.st4{fill-rule:evenodd;clip-rule:evenodd;fill:#606063;}
	.st5{fill:#BEBEBE;}
	.st6{fill:#F5F3F3;}
	.st7{fill-rule:evenodd;clip-rule:evenodd;fill:#612F01;}
	.st8{fill:#FEDC90;}
	.st9{fill:#D1884F;}
	.st10{fill-rule:evenodd;clip-rule:evenodd;fill:url(#SVGID_2_);}
	.st11{fill-rule:evenodd;clip-rule:evenodd;fill:#633001;}
	.st12{fill:#9E7200;}
	.st13{opacity:0.2;fill:none;stroke:#191326;stroke-width:2.837;enable-background:new    ;}
</style>
<circle class="st0" cx="49.2" cy="43.1" r="38.2"/>
<path class="st1" d="M34.9,43.1L29.1,49l-5.9-5.9l5.9-5.9L34.9,43.1z M49.2,28.9l10.1,10.1l5.9-5.9L55,23l-5.9-5.9L33.3,33.1
	l5.9,5.9L49.2,28.9z M69.2,37.2l-5.8,5.9l5.9,5.9l5.8-5.9L69.2,37.2z M49.2,57.4L39.1,47.3l-5.8,5.9l15.9,15.9l15.9-15.9l-5.9-5.8
	L49.2,57.4z M49.2,49l5.9-5.9l-5.9-5.9l-5.9,5.9L49.2,49z"/>
<circle class="st2" cx="49.2" cy="43.1" r="36.2"/>
<linearGradient id="SVGID_1_" gradientUnits="userSpaceOnUse" x1="113.1" y1="8.8" x2="113.1" y2="127.4" gradientTransform="matrix(1 0 0 1 0 38)">
	<stop  offset="0" style="stop-color:#54DADE"/>
	<stop  offset="0.762" style="stop-color:#24C7D6"/>
</linearGradient>
<circle class="st3" cx="113.1" cy="106.1" r="59.3"/>
<path class="st4" d="M74.6,112.6v0.7c0,0.8,0.1,1.7,0.2,2.5h-0.2v1.3c0,0.6,0,1.3,0.1,1.9c1.6,12.1,18.2,21.5,38.4,21.5
	S150,131,151.5,119c0.1-0.6,0.1-1.2,0.1-1.9v-1.3h-0.2c0.1-0.8,0.2-1.7,0.2-2.5c0-0.2,0-0.4,0-0.7C151,100,134,89.9,113.1,89.9
	S75.1,100,74.6,112.6z M71.4,112.6c0.3-7.7,5.5-14.2,12.8-18.6c7.5-4.6,17.8-7.3,28.9-7.3s21.4,2.7,28.9,7.3
	c7.3,4.4,12.5,10.9,12.8,18.6l0,0v4.5c0,8-5.3,14.7-12.8,19.3c-7.5,4.6-17.8,7.3-28.9,7.3s-21.4-2.7-28.9-7.3
	c-7.5-4.5-12.8-11.3-12.8-19.3L71.4,112.6L71.4,112.6z"/>
<path class="st5" d="M151.6,117c0,12.9-17.3,23.4-38.5,23.4S74.5,130,74.5,117v-3.7h77.1V117z"/>
<path class="st6" d="M151.6,113.3c0,12.9-17.3,23.4-38.5,23.4s-38.5-10.5-38.5-23.4s17.3-23.4,38.5-23.4S151.6,100.3,151.6,113.3
	L151.6,113.3z"/>
<path class="st7" d="M80.5,106.6L80.5,106.6c0,1.1,0.2,2.2,0.5,3.2h-0.5v1.4c0,0.6,0,1.2,0.1,1.8c1.5,8.9,13.8,15.8,28.7,15.8
	s27.2-6.9,28.7-15.8c0.1-0.6,0.1-1.2,0.1-1.8v-1.4h-0.5c0.3-1,0.4-2,0.5-3v-0.1c0-9.7-12.9-17.6-28.9-17.6S80.5,96.9,80.5,106.6z
	 M77.3,106.6L77.3,106.6v4.5c0,6.4,4.2,11.7,10,15.2c5.8,3.5,13.6,5.6,22.1,5.6s16.3-2.1,22.1-5.6c5.7-3.5,10-8.8,10-15.2v-4.4v-0.1
	c0-6.4-4.2-11.7-10-15.2s-13.6-5.6-22.1-5.6S93.1,88,87.3,91.5C81.6,95,77.3,100.3,77.3,106.6L77.3,106.6z"/>
<path class="st8" d="M138.2,111.2c0,9.7-12.9,17.6-28.9,17.6s-28.9-7.9-28.9-17.6V107h57.7v4.2H138.2z"/>
<path class="st9" d="M138.2,106.7c0,9.7-12.9,17.6-28.9,17.6s-28.9-7.9-28.9-17.6s12.9-17.6,28.9-17.6S138.2,97,138.2,106.7z"/>
<path class="st7" d="M89.2,97.2L89.2,97.2c0,1.1,0.2,2.2,0.5,3.2h-0.5v1.4c0,0.6,0.1,1.2,0.1,1.8c1.5,8.9,13.8,15.8,28.7,15.8
	s27.2-6.9,28.7-15.8c0.1-0.6,0.1-1.2,0.1-1.8v-1.4h-0.5c0.3-1,0.4-2,0.5-3v-0.1c0-9.7-12.9-17.6-28.9-17.6S89.2,87.4,89.2,97.2z
	 M86,97.2L86,97.2v4.5c0,6.4,4.2,11.7,10,15.2s13.6,5.6,22.1,5.6s16.3-2.1,22.1-5.6c5.7-3.5,10-8.8,10-15.2v-4.5
	c0-6.4-4.2-11.7-10-15.2s-13.6-5.6-22.1-5.6S101.8,78.5,96,82C90.3,85.5,86,90.8,86,97.2z"/>
<path class="st8" d="M146.9,101.7c0,9.7-12.9,17.6-28.9,17.6s-28.9-7.9-28.9-17.6v-4.1h57.7v4.1H146.9z"/>
<path class="st9" d="M146.9,97.2c0,9.7-12.9,17.6-28.9,17.6s-28.9-7.9-28.9-17.6S102,79.6,118,79.6S146.9,87.5,146.9,97.2z"/>
<path class="st7" d="M80.5,87.7L80.5,87.7c0,1.1,0.2,2.2,0.5,3.2h-0.5v1.4c0,0.6,0,1.2,0.1,1.8c1.5,8.9,13.8,15.8,28.7,15.8
	s27.2-6.9,28.7-15.8c0.1-0.6,0.1-1.2,0.1-1.8v-1.4h-0.5c0.3-1,0.4-2,0.5-3v-0.1c0-9.7-12.9-17.6-28.9-17.6S80.5,77.9,80.5,87.7z
	 M77.3,87.7L77.3,87.7v4.5c0,6.4,4.2,11.7,10,15.2s13.6,5.6,22.1,5.6s16.3-2.1,22.1-5.6c5.7-3.5,10-8.8,10-15.2v-4.4v-0.1
	c0-6.4-4.2-11.7-10-15.2s-13.6-5.6-22.1-5.6S93.1,69,87.3,72.5C81.6,76,77.3,81.3,77.3,87.7L77.3,87.7z"/>
<path class="st8" d="M138.2,92.2c0,9.7-12.9,17.6-28.9,17.6s-28.9-7.9-28.9-17.6v-4.1h57.7C138.2,88.1,138.2,92.2,138.2,92.2z"/>
<path class="st9" d="M138.2,87.7c0,9.7-12.9,17.6-28.9,17.6s-28.9-7.9-28.9-17.6s12.9-17.6,28.9-17.6S138.2,78,138.2,87.7z"/>
<g>
	
		<linearGradient id="SVGID_2_" gradientUnits="userSpaceOnUse" x1="104.7" y1="40.4846" x2="104.7" y2="77.1656" gradientTransform="matrix(1 0 0 1 0 38)">
		<stop  offset="0" style="stop-color:#9F4A08"/>
		<stop  offset="0.37" style="stop-color:#7D3900"/>
		<stop  offset="1" style="stop-color:#8D4104"/>
	</linearGradient>
	<path class="st10" d="M87.3,88.8c0,3.3,2.4,6.2,6.1,8.1l-2.6,4.5l0,0l0,0v11.3c0,1.5,1.2,2.7,2.7,2.7s2.7-1.2,2.7-2.7v-9l2.8-4.8
		c1.8,0.4,3.7,0.6,5.7,0.6c9.6,0,17.4-4.8,17.4-10.7c0-5.9-7.8-10.7-17.4-10.7S87.3,82.9,87.3,88.8z"/>
	<path class="st11" d="M93.4,96.9l-1.2-0.7c-3-1.9-4.9-4.5-4.9-7.4c0-5.9,7.8-10.7,17.4-10.7s17.4,4.8,17.4,10.7
		s-7.8,10.7-17.4,10.7c-1.9,0-3.8-0.2-5.7-0.6l-2.8,4.8v9c0,1.5-1.2,2.7-2.7,2.7s-2.7-1.2-2.7-2.7v-11.3
		C90.8,101.4,93.4,96.9,93.4,96.9z M88,101.5v11.3c0,3,2.5,5.5,5.5,5.5s5.5-2.5,5.5-5.5v-8.3l1.4-2.5c1.4,0.2,2.8,0.3,4.2,0.3
		c5.2,0,10.1-1.3,13.7-3.5s6.4-5.6,6.4-9.9s-2.8-7.7-6.4-9.9c-3.6-2.2-8.5-3.5-13.7-3.5S94.5,76.8,90.9,79s-6.4,5.6-6.4,9.9
		c0,3.7,2.1,6.8,5.1,9l-1.2,2.1c-0.1,0.2-0.2,0.4-0.3,0.6C88.1,100.9,88,101.2,88,101.5L88,101.5z"/>
</g>
<g>
	<g>
		<path id="F" class="st12" d="M92.7,84.3c0,3.1,3.9,5.5,8.7,5.5c4.8,0,8.7-2.5,8.7-5.5s-3.9-5.5-8.7-5.5S92.7,81.3,92.7,84.3z"/>
	</g>
	<path class="st12" d="M92.7,81.9h17.4v2.4H92.7V81.9z"/>
</g>
<g>
	<path id="F_1_" class="st0" d="M92.7,81.9c0,3.1,3.9,5.5,8.7,5.5c4.8,0,8.7-2.5,8.7-5.5s-3.9-5.5-8.7-5.5S92.7,78.9,92.7,81.9z"/>
</g>
<path class="st12" d="M98.1,81.3l2.5-1.6c0.5-0.3,1.2-0.3,1.7,0l2.5,1.6c0.4,0.2,0.5,0.7,0.2,1.1c-0.1,0.1-0.1,0.2-0.2,0.2l-2.5,1.6
	c-0.5,0.3-1.2,0.3-1.7,0l-2.5-1.6c-0.4-0.2-0.5-0.7-0.2-1.1C98,81.4,98,81.3,98.1,81.3z"/>
<path class="st11" d="M93.8,75.7c2.1-1.3,4.8-2.1,7.6-2.1s5.6,0.7,7.6,2.1c2,1.3,3.8,3.4,3.8,6.2v2.4c0,2.8-1.8,4.9-3.8,6.2
	c-2.1,1.3-4.8,2.1-7.6,2.1s-5.6-0.7-7.6-2.1c-2-1.3-3.8-3.4-3.8-6.2v-2.4C90,79.1,91.7,77,93.8,75.7z M101.4,76.4
	c-4.8,0-8.7,2.5-8.7,5.5v2.4c0,3.1,3.9,5.5,8.7,5.5s8.7-2.5,8.7-5.5v-2.4C110.1,78.9,106.2,76.4,101.4,76.4z"/>
<circle class="st13" cx="113.1" cy="106.1" r="57.4"/>
</svg>
