<?xml version="1.0" encoding="utf-8"?>
<!-- Generator: Adobe Illustrator 24.2.3, SVG Export Plug-In . SVG Version: 6.00 Build 0)  -->
<svg version="1.1" id="Шар_1" xmlns:v="https://vecta.io/nano"
	 xmlns="http://www.w3.org/2000/svg" xmlns:xlink="http://www.w3.org/1999/xlink" x="0px" y="0px" viewBox="0 0 186 171"
	 style="enable-background:new 0 0 186 171;" xml:space="preserve">
<style type="text/css">
	.st0{fill:#F0B90B;}
	.st1{fill:#FFFDFA;}
	.st2{opacity:0.1;fill:none;stroke:#191326;stroke-width:3;enable-background:new    ;}
	.st3{fill:#F5F3F3;}
	.st4{fill:#2F3030;}
	.st5{fill:#191326;}
	.st6{fill:#828384;}
	.st7{fill:#343535;}
	.st8{opacity:0.2;fill:none;stroke:#191326;stroke-width:2.837;enable-background:new    ;}
</style>
<circle class="st0" cx="48.1" cy="45.3" r="39.8"/>
<path class="st1" d="M33.3,45.3l-6.1,6.1l-6.1-6.1l6.1-6.1L33.3,45.3z M48.1,30.4l10.5,10.5l6.1-6.1L54.3,24.3l-6.1-6.1L31.6,34.8
	l6.1,6.1L48.1,30.4z M69,39.1L63,45.3l6.1,6.1l6.1-6.1L69,39.1z M48.1,60.1L37.7,49.6l-6.1,6.1l16.6,16.6l16.6-16.6l-6.1-6.1
	L48.1,60.1z M48.1,51.4l6.1-6.1l-6.1-6.1L42,45.3L48.1,51.4z"/>
<circle class="st2" cx="48.1" cy="45.3" r="37.7"/>
<circle class="st3" cx="116" cy="104.9" r="59.6"/>
<path class="st4" d="M116,126v20.8l25.6-35.9L116,126z"/>
<path class="st5" d="M116,93.9v26.7l25.6-15.1L116,93.9z"/>
<path class="st4" d="M116,63.1v30.8l25.6,11.6L116,63.1z"/>
<path class="st6" d="M116,126v20.8l-25.6-35.9L116,126z"/>
<path class="st7" d="M116,93.9v26.7l-25.6-15.1L116,93.9z"/>
<path class="st6" d="M116,63.1v30.8l-25.6,11.6L116,63.1z"/>
<circle class="st8" cx="116" cy="104.9" r="57.7"/>
</svg>
