<?xml version="1.0" encoding="utf-8"?>
<!-- Generator: Adobe Illustrator 24.2.3, SVG Export Plug-In . SVG Version: 6.00 Build 0)  -->
<svg version="1.1" id="Шар_1" xmlns="http://www.w3.org/2000/svg" xmlns:xlink="http://www.w3.org/1999/xlink" x="0px" y="0px"
	 viewBox="0 0 160 160" style="enable-background:new 0 0 160 160;" xml:space="preserve">
<style type="text/css">
	.st0{fill:#FFFFFF;}
	.st1{clip-path:url(#SVGID_2_);}
	.st2{fill:#2F3030;}
	.st3{fill:#100C18;}
	.st4{fill:#828384;}
	.st5{fill:#343535;}
	.st6{opacity:0.2;}
	.st7{fill-rule:evenodd;clip-rule:evenodd;fill:#191326;}
</style>
<circle class="st0" cx="89.3" cy="83" r="69.4"/>
<g>
	<g>
		<defs>
			<rect id="SVGID_1_" x="-76" y="-30" width="248.5" height="248.5"/>
		</defs>
		<clipPath id="SVGID_2_">
			<use xlink:href="#SVGID_1_"  style="overflow:visible;"/>
		</clipPath>
		<g class="st1">
			<path class="st2" d="M89.4,106.5v23.6l29-40.8L89.4,106.5z"/>
			<path class="st3" d="M89.4,70.2v30.3l29-17.1L89.4,70.2z"/>
			<path class="st2" d="M89.4,35.3v34.9l29,13.2L89.4,35.3z"/>
			<path class="st4" d="M89.4,106.5v23.6l-29-40.8L89.4,106.5z"/>
			<path class="st5" d="M89.4,70.2v30.3l-29-17.1L89.4,70.2z"/>
			<path class="st4" d="M89.4,35.3v34.9l-29,13.2L89.4,35.3z"/>
			<g class="st6">
				<path class="st7" d="M89.4,145.7c34.9,0,63.2-28.3,63.2-63.2s-28.3-63.2-63.2-63.2S26.2,47.7,26.2,82.6S54.5,145.7,89.4,145.7z
					 M89.4,150.1c37.3,0,67.6-30.3,67.6-67.6S126.7,15,89.4,15S21.8,45.2,21.8,82.6S52.1,150.1,89.4,150.1z"/>
			</g>
		</g>
	</g>
</g>
</svg>
