<?xml version="1.0" encoding="utf-8"?>
<!-- Generator: Adobe Illustrator 24.2.3, SVG Export Plug-In . SVG Version: 6.00 Build 0)  -->
<svg version="1.1" id="Шар_1" xmlns:v="https://vecta.io/nano"
	 xmlns="http://www.w3.org/2000/svg" xmlns:xlink="http://www.w3.org/1999/xlink" x="0px" y="0px" viewBox="0 0 160 160"
	 style="enable-background:new 0 0 160 160;" xml:space="preserve">
<style type="text/css">
	.st0{clip-path:url(#SVGID_2_);}
	.st1{fill:#F0B90B;}
	.st2{fill-rule:evenodd;clip-rule:evenodd;fill:#FFFDFA;}
	.st3{opacity:0.1;}
	.st4{fill-rule:evenodd;clip-rule:evenodd;fill:#191326;}
	.st5{fill:#2775CA;}
	.st6{fill:#FFFFFF;}
	.st7{opacity:0.2;}
</style>
<g>
	<defs>
		<rect id="SVGID_1_" x="-27.9" y="8.3" width="196" height="196"/>
	</defs>
	<clipPath id="SVGID_2_">
		<use xlink:href="#SVGID_1_"  style="overflow:visible;"/>
	</clipPath>
	<g class="st0">
		<circle class="st1" cx="41.9" cy="43.8" r="35.5"/>
		<path class="st2" d="M26.8,34.8L42,19.7l6,6L32.9,40.8C32.9,40.8,26.8,34.8,26.8,34.8z M26.8,52.9L51,28.7l6,6L32.9,58.9
			C32.9,58.9,26.8,52.9,26.8,52.9z M60.1,37.7L35.9,61.9l6,6l24.2-24.2L60.1,37.7L60.1,37.7z M17.8,43.8l6-6l6,6l-6,6L17.8,43.8z"/>
		<g class="st3">
			<path class="st4" d="M41.9,75.7c17.6,0,31.9-14.3,31.9-31.9S59.5,12,41.9,12S10.1,26.2,10.1,43.8S24.4,75.7,41.9,75.7z
				 M41.9,79.3c19.6,0,35.5-15.9,35.5-35.5S61.6,8.3,41.9,8.3S6.4,24.2,6.4,43.8S22.3,79.3,41.9,79.3z"/>
		</g>
		<path class="st5" d="M102.6,150.4c29.4,0,53.3-23.9,53.3-53.3S132,43.8,102.6,43.8S49.3,67.7,49.3,97.1S73.2,150.4,102.6,150.4z"
			/>
		<g>
			<path class="st6" d="M93.1,134.4c0,1.2-1,1.9-2.2,1.6c-16.6-5.3-27.8-20.7-27.8-38.1c0-17.8,11.7-32.9,27.8-38.1
				c1.2-0.4,2.2,0.4,2.2,1.6v3.1c0,0.8-0.6,1.8-1.5,2.1c-12.7,4.6-21.8,16.8-21.8,31.2s9.1,26.6,21.9,31.3c0.8,0.3,1.5,1.2,1.5,2.1
				L93.1,134.4L93.1,134.4L93.1,134.4z M106,122.1c0,0.9-0.8,1.6-1.6,1.6h-3.3c-0.9,0-1.6-0.8-1.6-1.6v-5.3
				c-7.3-1-10.8-5.1-11.8-10.6c-0.1-0.9,0.4-1.7,1.3-1.8c0.1,0,0.2,0,0.2,0H93c0.8,0,1.5,0.6,1.6,1.4c0.7,3.3,2.6,5.8,8.5,5.8
				c4.3,0,7.4-2.4,7.4-6c0-3.6-1.8-4.9-8.1-6c-9.4-1.2-13.8-4-13.8-11.4c0-5.6,4.2-10,10.9-10.9v-5.2c0-0.9,0.8-1.6,1.6-1.6h3.3
				c0.9,0,1.6,0.8,1.6,1.6v5.3c5.4,0.9,8.8,4,9.9,9.1c0.2,0.9-0.5,1.9-1.5,1.9h-3.5c-0.8,0-1.4-0.5-1.6-1.2
				c-0.9-3.2-3.2-4.6-7.2-4.6c-4.4,0-6.7,2.1-6.7,5.1c0,3.2,1.3,4.8,8.1,5.7c9.2,1.2,13.9,3.9,13.9,11.6c0,5.9-4.4,10.7-11.2,11.8
				L106,122.1L106,122.1z M114.4,136.1c-1.2,0.4-2.2-0.4-2.2-1.6v-3.1c0-0.9,0.6-1.8,1.5-2.1c12.8-4.7,21.9-16.9,21.9-31.3
				s-9.2-26.5-21.9-31.2c-0.8-0.3-1.5-1.2-1.5-2.1v-3.1c0-1.2,1-2,2.2-1.6c16.6,5.3,27.8,20.7,27.8,38.1
				C142.2,115.8,130.5,130.9,114.4,136.1L114.4,136.1z"/>
		</g>
		<g class="st7">
			<path class="st4" d="M102.6,146.9c27.5,0,49.8-22.3,49.8-49.8s-22.3-49.8-49.8-49.8S52.8,69.6,52.8,97.1S75.1,146.9,102.6,146.9z
				 M102.6,150.4c29.4,0,53.3-23.9,53.3-53.3S132,43.8,102.6,43.8S49.3,67.7,49.3,97.1S73.2,150.4,102.6,150.4z"/>
		</g>
	</g>
</g>
</svg>
