<?xml version="1.0" encoding="utf-8"?>
<!-- Generator: Adobe Illustrator 24.2.3, SVG Export Plug-In . SVG Version: 6.00 Build 0)  -->
<svg version="1.1" id="Шар_1" xmlns:v="https://vecta.io/nano"
	 xmlns="http://www.w3.org/2000/svg" xmlns:xlink="http://www.w3.org/1999/xlink" x="0px" y="0px" viewBox="0 0 186 171"
	 style="enable-background:new 0 0 186 171;" xml:space="preserve">
<style type="text/css">
	.st0{fill:#24A980;}
	.st1{fill:#FFFDFA;}
	.st2{opacity:0.2;fill:none;stroke:#191326;stroke-width:2.837;enable-background:new    ;}
</style>
<path class="st0" d="M101.8,160.5c41.8,0,75.8-33.9,75.8-75.8S143.6,9,101.8,9S26,42.9,26,84.8S59.9,160.5,101.8,160.5z"/>
<path class="st1" d="M111.1,92.4l-9.2,0.3c-4.9,0-8.2-0.1-9.4-0.3c-18.3-0.8-32.3-4-32.3-7.8c0-4,13.7-7.1,32.3-7.9v12.5
	c1.2,0.1,4.6,0.3,9.5,0.3c5.7,0,8.7-0.3,9.1-0.3V76.7c18.5,0.8,32.3,4,32.3,7.9C143.5,88.3,129.6,91.6,111.1,92.4z M111.1,75.2V64
	H137V46.9H66.8V64h25.9v11.2C71.7,76.2,56,80.4,56,85.4c0,5,15.7,9.1,36.7,10.2v36h18.6v-36c21-0.9,36.7-5.1,36.7-10.2
	C147.8,80.4,132.1,76.3,111.1,75.2L111.1,75.2z"/>
<circle class="st2" cx="101.8" cy="84.8" r="73.2"/>
</svg>
