<?xml version="1.0" encoding="utf-8"?>
<!-- Generator: Adobe Illustrator 24.2.3, SVG Export Plug-In . SVG Version: 6.00 Build 0)  -->
<svg version="1.1" id="Шар_1" xmlns:v="https://vecta.io/nano"
	 xmlns="http://www.w3.org/2000/svg" xmlns:xlink="http://www.w3.org/1999/xlink" x="0px" y="0px" viewBox="0 0 186 171"
	 style="enable-background:new 0 0 186 171;" xml:space="preserve">
<style type="text/css">
	.st0{fill:#F0B90B;}
	.st1{fill-rule:evenodd;clip-rule:evenodd;fill:#FFFDFA;}
	.st2{opacity:0.1;fill:none;stroke:#191326;stroke-width:3;enable-background:new    ;}
	.st3{fill:#24A980;}
	.st4{fill:#FFFDFA;}
	.st5{opacity:0.2;fill:none;stroke:#191326;stroke-width:2.837;enable-background:new    ;}
</style>
<circle class="st0" cx="54.8" cy="45.7" r="38.3"/>
<path class="st1" d="M38.5,36l16.3-16.3l6.5,6.5L45,42.5C45,42.5,38.5,36,38.5,36z M38.5,55.5l26.1-26.1l6.5,6.5L45,62
	C45,62,38.5,55.5,38.5,55.5z M74.3,39.2L48.2,65.3l6.5,6.5l26.1-26.1L74.3,39.2L74.3,39.2z M28.7,45.7l6.5-6.5l6.5,6.5l-6.5,6.5
	L28.7,45.7z"/>
<circle class="st2" cx="54.8" cy="45.7" r="36.3"/>
<path class="st3" d="M120.1,160.5c31.7,0,57.4-25.7,57.4-57.4s-25.7-57.4-57.4-57.4s-57.4,25.7-57.4,57.4S88.4,160.5,120.1,160.5z"
	/>
<path class="st4" d="M127.2,108.9l-7,0.2c-3.7,0-6.2-0.1-7.1-0.2c-13.9-0.6-24.5-3-24.5-5.9c0-3,10.4-5.4,24.5-6v9.5
	c0.9,0.1,3.5,0.2,7.2,0.2c4.3,0,6.6-0.2,6.9-0.2V97c14,0.6,24.5,3,24.5,6C151.7,105.8,141.2,108.3,127.2,108.9z M127.2,95.9v-8.5
	h19.6v-13H93.6v13h19.6v8.5c-15.9,0.7-27.8,3.9-27.8,7.7c0,3.8,11.9,6.9,27.8,7.7v27.3h14.1v-27.3c15.9-0.7,27.8-3.9,27.8-7.7
	C155,99.8,143.1,96.7,127.2,95.9L127.2,95.9z"/>
<circle class="st5" cx="120.1" cy="103.1" r="55.5"/>
</svg>
