<?xml version="1.0" encoding="utf-8"?>
<!-- Generator: Adobe Illustrator 24.2.3, SVG Export Plug-In . SVG Version: 6.00 Build 0)  -->
<svg version="1.1" id="Шар_1" xmlns:v="https://vecta.io/nano"
	 xmlns="http://www.w3.org/2000/svg" xmlns:xlink="http://www.w3.org/1999/xlink" x="0px" y="0px" viewBox="0 0 186 171"
	 style="enable-background:new 0 0 186 171;" xml:space="preserve">
<style type="text/css">
	.st0{fill:#F0B90B;}
	.st1{fill:#FFFDFA;}
	.st2{opacity:0.1;fill:none;stroke:#191326;stroke-width:3;enable-background:new    ;}
</style>
<circle class="st0" cx="103.7" cy="88" r="78.2"/>
<path class="st1" d="M74.5,88l-12,12l-12-12l12-12L74.5,88z M103.7,58.8l20.6,20.6l12-12l-20.6-20.5l-12-12L71.1,67.4l12,12
	L103.7,58.8z M144.8,76l-12,12l12,12l12-12L144.8,76z M103.7,117.2L83.1,96.6l-12,12l32.6,32.6l32.6-32.6l-12-12L103.7,117.2z
	 M103.7,100l12-12l-12-12l-12,12L103.7,100z"/>
<circle class="st2" cx="103.7" cy="88" r="74.1"/>
</svg>
